HIERARCHY
ROOT Hips
{
 OFFSET 0.000000 0.000000 0.000000
 CHANNELS 6 Xposition Yposition Zposition Yrotation Xrotation Zrotation
 JOINT Chest
 {
  OFFSET 0.000000 9.585900 0.002600
  CHANNELS 3 Yrotation Xrotation Zrotation
  JOINT Chest2
  {
   OFFSET 0.000000 9.601200 -0.005300
   CHANNELS 3 Yrotation Xrotation Zrotation
   JOINT Chest3
   {
    OFFSET 0.000000 9.561800 0.000000
    CHANNELS 3 Yrotation Xrotation Zrotation
    JOINT Chest4
    {
     OFFSET 0.000000 9.552100 0.000000
     CHANNELS 3 Yrotation Xrotation Zrotation
     JOINT Neck
     {
      OFFSET 0.000000 14.453000 0.000000
      CHANNELS 3 Yrotation Xrotation Zrotation
      JOINT Head
      {
       OFFSET 0.000000 8.936500 -0.011300
       CHANNELS 3 Yrotation Xrotation Zrotation
       End Site
       {
        OFFSET 0.000000 17.073600 -0.006000
       }
      }
     }
     JOINT RightCollar
     {
      OFFSET -2.921100 9.558500 0.000000
      CHANNELS 3 Yrotation Xrotation Zrotation
      JOINT RightShoulder
      {
       OFFSET -13.519700 0.000000 0.000000
       CHANNELS 3 Yrotation Xrotation Zrotation
       JOINT RightElbow
       {
        OFFSET 0.000000 -29.696600 0.000000
        CHANNELS 3 Yrotation Xrotation Zrotation
        JOINT RightWrist
        {
         OFFSET 0.000000 -24.004700 0.000000
         CHANNELS 3 Yrotation Xrotation Zrotation
         End Site
         {
          OFFSET 0.000000 -17.728500 0.000000
         }
        }
       }
      }
     }
     JOINT LeftCollar
     {
      OFFSET 2.921100 9.558500 0.000000
      CHANNELS 3 Yrotation Xrotation Zrotation
      JOINT LeftShoulder
      {
       OFFSET 13.519700 0.000000 0.000000
       CHANNELS 3 Yrotation Xrotation Zrotation
       JOINT LeftElbow
       {
        OFFSET 0.000000 -29.696600 0.000000
        CHANNELS 3 Yrotation Xrotation Zrotation
        JOINT LeftWrist
        {
         OFFSET 0.000000 -24.004700 0.000000
         CHANNELS 3 Yrotation Xrotation Zrotation
         End Site
         {
          OFFSET 0.000000 -17.728500 0.000000
         }
        }
       }
      }
     }
    }
   }
  }
 }
 JOINT RightHip
 {
  OFFSET -7.771700 -0.012900 -0.001300
  CHANNELS 3 Yrotation Xrotation Zrotation
  JOINT RightKnee
  {
   OFFSET 0.000000 -40.869800 0.001200
   CHANNELS 3 Yrotation Xrotation Zrotation
   JOINT RightAnkle
   {
    OFFSET 0.000000 -39.717900 0.002100
    CHANNELS 3 Yrotation Xrotation Zrotation
    JOINT RightToe
    {
     OFFSET 0.000000 -4.965400 11.033500
     CHANNELS 3 Yrotation Xrotation Zrotation
     End Site
     {
      OFFSET 0.000000 -1.423100 5.872300
     }
    }
   }
  }
 }
 JOINT LeftHip
 {
  OFFSET 7.771700 -0.012900 -0.001300
  CHANNELS 3 Yrotation Xrotation Zrotation
  JOINT LeftKnee
  {
   OFFSET 0.000000 -40.869800 0.001200
   CHANNELS 3 Yrotation Xrotation Zrotation
   JOINT LeftAnkle
   {
    OFFSET 0.000000 -39.717900 0.002100
    CHANNELS 3 Yrotation Xrotation Zrotation
    JOINT LeftToe
    {
     OFFSET 0.000000 -4.965400 11.033500
     CHANNELS 3 Yrotation Xrotation Zrotation
     End Site
     {
      OFFSET 0.000000 -1.423100 5.872300
     }
    }
   }
  }
 }
}
MOTION
Frames: 15
Frame Time: 0.008333
0.000000 85.388000 0.000000 0.000000 -5.767877 0.000000 0.000000 11.653817 0.000000 0.000000 -5.885947 0.000000 0.000000 -0.000000 0.000000 0.000000 -0.000000 0.000000 0.000000 12.528835 0.000000 0.000000 0.711642 0.000000 0.000000 -0.000000 0.000000 0.000000 0.000000 -90.000000 0.000000 -2.309062 0.000000 0.000000 2.309062 0.000000 0.000000 -0.000000 0.000000 0.000000 -0.000000 90.000000 0.000000 -2.309062 0.000000 0.000000 2.309062 0.000000 0.000000 8.520406 0.000000 0.000000 1.905762 0.000000 -0.000000 -4.658285 0.000000 0.000000 -0.000000 0.000000 0.000000 8.520406 0.000000 0.000000 1.905762 0.000000 -0.000000 -4.658285 0.000000 0.000000 -0.000000 0.000000
-23.270574 48.902675 28.540356 172.473163 -27.955835 -0.185703 0.257613 13.168273 1.844385 0.007065 7.536322 1.425264 0.038451 9.420231 1.785515 0.007008 7.536279 1.425270 -0.987382 17.102174 -2.582305 -1.048456 -3.932438 -4.364007 5.102253 4.424528 -4.121045 0.038548 -18.887127 -9.240227 34.733404 -61.684950 -23.188638 10.290522 1.005481 -37.963044 -4.419702 1.704893 -4.788026 6.939853 -22.454377 -1.089115 -69.144749 -45.135139 44.376064 -9.250817 14.242955 35.824553 25.861916 -52.682873 -30.792281 -114.323528 70.713921 -103.767813 0.511255 -6.271736 3.640872 0.219166 -0.813634 0.097260 -5.887685 -55.106646 15.077226 114.595094 80.596981 112.043273 -4.302334 -11.845700 -3.307549 0.242480 0.705937 0.113275
-23.271760 48.902841 28.541000 172.484706 -27.948145 -0.185128 0.267792 13.145055 1.838039 -0.002050 7.539320 1.425863 0.040820 9.415152 1.783349 0.024284 7.508419 1.410656 -1.086541 17.217829 -2.514015 -1.153830 -3.818180 -4.275103 5.096750 4.350463 -4.117640 0.030219 -18.795872 -9.212335 34.658011 -61.610617 -23.092181 10.289771 0.970182 -37.989767 -4.469181 1.657548 -4.771835 6.958454 -22.388677 -1.088563 -69.129826 -45.115107 44.352325 -9.255568 14.239978 35.824080 25.869449 -52.684517 -30.808620 -114.325202 70.714597 -103.765242 0.496713 -6.273238 3.642102 0.223384 -0.814028 0.098496 -5.893165 -55.114748 15.066438 114.563579 80.598689 112.009745 -4.296299 -11.841003 -3.304456 0.234669 0.705734 0.109712
-23.272731 48.903092 28.541647 172.503365 -27.936656 -0.188752 0.273286 13.118033 1.832626 -0.013346 7.541739 1.426732 0.042762 9.409483 1.781000 0.042527 7.472709 1.395387 -1.162671 17.314267 -2.458553 -1.315534 -3.641651 -4.146043 5.097497 4.270730 -4.117570 0.018035 -18.694242 -9.180513 34.602156 -61.570668 -23.036929 10.289297 0.973420 -37.983978 -4.519271 1.596017 -4.753546 6.968249 -22.339808 -1.114576 -69.067021 -45.063987 44.277209 -9.260996 14.246374 35.831493 25.871117 -52.688260 -30.825385 -114.332915 70.722461 -103.766264 0.473214 -6.279353 3.633434 0.230045 -0.814405 0.106908 -5.902548 -55.128555 15.056349 114.539200 80.598288 111.984316 -4.292869 -11.835831 -3.296541 0.230476 0.705162 0.103775
-23.274543 48.903503 28.541824 172.539942 -27.921993 -0.194918 0.260653 13.084879 1.818774 0.010961 7.509378 1.417861 0.033630 9.418783 1.787008 0.025206 7.482141 1.404936 -1.241579 17.391122 -2.412276 -1.494241 -3.433281 -4.003041 5.115429 4.156740 -4.137290 -0.005882 -18.567160 -9.142531 34.567391 -61.543154 -22.999030 10.289237 0.973618 -37.969951 -4.555489 1.488279 -4.746608 6.989699 -22.222090 -1.106203 -69.039351 -45.058806 44.239902 -9.261011 14.248799 35.843270 25.864218 -52.692506 -30.853924 -114.347403 70.727572 -103.777575 0.457536 -6.284615 3.630868 0.231855 -0.815618 0.111049 -5.919647 -55.147331 15.033307 114.517721 80.598227 111.962778 -4.281919 -11.832545 -3.292851 0.224400 0.705899 0.100697
-23.274923 48.904831 28.540227 172.564751 -27.913772 -0.202276 0.257243 13.054998 1.809004 -0.002125 7.522040 1.424969 0.049509 9.375225 1.772050 0.016144 7.500320 1.414233 -1.331346 17.476425 -2.358973 -1.688690 -3.189503 -3.842065 5.138157 4.036023 -4.156964 -0.015894 -18.464780 -9.107310 34.479923 -61.461868 -22.903252 10.270279 0.983862 -37.946708 -4.592777 1.365868 -4.741435 7.017229 -22.086466 -1.096060 -69.010553 -45.061667 44.196876 -9.265879 14.255254 35.855190 25.853058 -52.696183 -30.866440 -114.369355 70.732455 -103.800723 0.451663 -6.287259 3.632552 0.226010 -0.821888 0.110962 -5.939723 -55.158741 15.030635 114.525328 80.595008 111.969315 -4.286279 -11.825542 -3.291792 0.224107 0.698496 0.100879
-23.275050 48.906575 28.537453 172.581462 -27.906246 -0.206392 0.257744 13.024945 1.798547 0.002518 7.504337 1.419852 0.057934 9.298352 1.749724 0.008574 7.535222 1.427726 -1.436303 17.617023 -2.274646 -1.906355 -2.912898 -3.659221 5.157467 3.953052 -4.149398 -0.030780 -18.362294 -9.074013 34.367895 -61.373545 -22.784458 10.268081 0.969402 -37.938913 -4.642094 1.277573 -4.721726 7.012408 -21.980947 -1.143921 -68.868099 -45.005120 44.069840 -9.308685 14.243801 35.884668 25.852866 -52.692848 -30.883918 -114.386911 70.739069 -103.812598 0.455156 -6.296192 3.634146 0.215891 -0.821749 0.109095 -5.957832 -55.166128 15.034585 114.539877 80.596802 111.978843 -4.289761 -11.820173 -3.291224 0.223922 0.692591 0.101844
-23.274302 48.908430 28.533964 172.592072 -27.896840 -0.212883 0.262659 12.993632 1.792924 0.016187 7.437139 1.401423 0.049084 9.296156 1.755912 0.014029 7.460257 1.408361 -1.555072 17.851717 -2.161059 -2.152644 -2.610284 -3.452192 5.176920 3.945995 -4.113473 -0.055680 -18.249597 -9.044792 34.230704 -61.246884 -22.615044 10.267863 0.915538 -37.964587 -4.698248 1.263403 -4.691825 7.026909 -21.828742 -1.143720 -68.799847 -44.979085 44.013495 -9.308785 14.231517 35.893152 25.852211 -52.697179 -30.890100 -114.403756 70.742131 -103.827353 0.451579 -6.299414 3.636677 0.213924 -0.825920 0.107104 -5.981157 -55.172877 15.051828 114.555050 80.596206 111.986833 -4.295066 -11.820041 -3.292085 0.234510 0.688239 0.104489
-23.273349 48.909328 28.531523 172.611954 -27.873672 -0.227146 0.259606 12.948208 1.790492 0.010279 7.436928 1.404978 0.057430 9.242490 1.744260 0.017667 7.413177 1.398400 -1.686549 18.049526 -2.051502 -2.429683 -2.287695 -3.220638 5.204017 3.892065 -4.095109 -0.080865 -18.136776 -9.020011 34.126064 -61.153639 -22.494252 10.272031 0.900632 -37.964875 -4.752831 1.193795 -4.674514 7.057676 -21.648801 -1.122276 -68.733263 -44.992939 43.938658 -9.293249 14.209677 35.880990 25.855692 -52.715411 -30.903653 -114.427589 70.740389 -103.846608 0.443079 -6.300814 3.638703 0.216117 -0.831462 0.107043 -6.018230 -55.192923 15.075720 114.575017 80.591374 111.996201 -4.291414 -11.834328 -3.286258 0.229796 0.696856 0.102359
-23.274460 48.910574 28.527150 172.628216 -27.855873 -0.228318 0.256424 12.904495 1.776052 0.005409 7.439964 1.408984 0.067217 9.182863 1.733300 0.020158 7.387884 1.395768 -1.831789 18.231711 -1.939402 -2.735477 -1.950508 -2.968351 5.236602 3.820318 -4.083145 -0.101578 -18.025894 -8.999966 34.019122 -61.063240 -22.383037 10.278177 0.894044 -37.956608 -4.809097 1.095854 -4.662358 7.010466 -21.516831 -1.152911 -68.554896 -44.915031 43.804740 -9.290488 14.198586 35.901852 25.860598 -52.727129 -30.926101 -114.453870 70.742643 -103.878041 0.444291 -6.306398 3.639752 0.206948 -0.835780 0.108734 -6.029107 -55.209912 15.071598 114.582571 80.589643 111.999538 -4.293539 -11.833834 -3.282608 0.234023 0.690547 0.102566
-23.275514 48.911995 28.521357 172.642695 -27.843276 -0.231039 0.251597 12.869637 1.765694 0.012605 7.411808 1.404075 0.067879 9.143011 1.730521 0.022561 7.361283 1.393373 -1.989177 18.418591 -1.820480 -3.064833 -1.603759 -2.700842 5.275479 3.754586 -4.067871 -0.127349 -17.896976 -8.982623 33.940154 -61.005659 -22.309493 10.282444 0.902454 -37.943040 -4.863218 0.996347 -4.650456 6.971718 -21.363623 -1.154709 -68.401280 -44.857484 43.680604 -9.296275 14.193287 35.940991 25.870930 -52.731174 -30.949152 -114.487456 70.742211 -103.910226 0.446501 -6.312130 3.646134 0.199038 -0.840730 0.107426 -6.045936 -55.218853 15.079736 114.599387 80.590503 112.007664 -4.307804 -11.835938 -3.279679 0.240190 0.687515 0.105584
-23.276657 48.913360 28.514539 172.644858 -27.834711 -0.230503 0.252157 12.853122 1.761945 0.022327 7.361911 1.393339 0.072156 9.104424 1.727804 0.025350 7.333656 1.390801 -2.157719 18.607798 -1.696401 -3.415116 -1.251510 -2.421605 5.316749 3.689952 -4.047196 -0.170872 -17.726714 -8.964778 33.894022 -60.937382 -22.247092 10.273880 0.887388 -37.952432 -4.913884 0.894169 -4.638155 6.937701 -21.197864 -1.139028 -68.251288 -44.814009 43.541416 -9.294851 14.185483 35.990508 25.885670 -52.731423 -30.964205 -114.508719 70.740437 -103.927366 0.441395 -6.319662 3.649414 0.199738 -0.841736 0.106534 -6.058467 -55.223643 15.091718 114.649960 80.589806 112.046154 -4.308988 -11.839597 -3.274359 0.237599 0.682180 0.105262
-23.277568 48.912762 28.510366 172.648888 -27.807313 -0.238454 0.259948 12.792494 1.759943 0.038487 7.283212 1.381038 0.068431 9.116085 1.735860 0.029333 7.306368 1.388422 -2.337319 18.797447 -1.569190 -3.785346 -0.897166 -2.134439 5.353228 3.619442 -4.020673 -0.136260 -17.677164 -8.983173 33.637023 -60.753844 -22.011607 10.265495 0.875433 -37.954235 -4.966071 0.783050 -4.625946 6.894999 -21.030115 -1.111379 -68.093392 -44.770488 43.381322 -9.227498 14.156310 36.002146 25.900677 -52.751877 -30.984569 -114.520751 70.742347 -103.931653 0.439699 -6.323789 3.649479 0.197609 -0.842642 0.103453 -6.097607 -55.243840 15.128179 114.679675 80.596600 112.063862 -4.315097 -11.847949 -3.280017 0.247377 0.686958 0.111039
-23.279387 48.913069 28.503420 172.664761 -27.797650 -0.248672 0.276033 12.701424 1.747398 0.034209 7.279713 1.387085 0.070683 9.099270 1.738026 0.034264 7.279665 1.387086 -2.527159 18.987282 -1.442070 -4.173067 -0.541251 -1.845653 5.384261 3.539412 -3.992369 -0.119391 -17.590416 -8.996118 33.441885 -60.604188 -21.826602 10.252603 0.858854 -37.968506 -5.024600 0.660190 -4.618757 6.888227 -20.821090 -1.072190 -68.002620 -44.753704 43.249715 -9.213742 14.153460 36.062828 25.899335 -52.753325 -30.996007 -114.555035 70.746478 -103.960591 0.431545 -6.337018 3.655391 0.198976 -0.841390 0.100666 -6.121073 -55.251841 15.137232 114.732929 80.602696 112.115575 -4.311189 -11.853181 -3.281504 0.251007 0.685806 0.112436
-23.281808 48.913637 28.495111 172.678232 -27.797611 -0.257015 0.281218 12.658389 1.743161 0.039352 7.252812 1.386349 0.077019 9.065701 1.737247 0.039435 7.252785 1.386409 -2.726230 19.179873 -1.316593 -4.576060 -0.178851 -1.558611 5.411987 3.451982 -3.965760 -0.117127 -17.483141 -9.003973 33.250313 -60.411766 -21.616397 10.232332 0.776843 -38.021252 -5.088363 0.528817 -4.620264 6.823836 -20.676813 -1.009715 -67.796439 -44.700165 43.022224 -9.192699 14.148129 36.129005 25.899124 -52.744715 -31.001916 -114.585414 70.742266 -103.987694 0.434499 -6.350456 3.657237 0.195468 -0.839944 0.105423 -6.138483 -55.250582 15.141564 114.804508 80.611085 112.184461 -4.300234 -11.858016 -3.279858 0.249450 0.682567 0.111670
